<svg aria-hidden="true" xmlns="http://www.w3.org/2000/svg"><defs><symbol id="icon-envelope" viewBox="0 0 32 32"><path d="M29.001 3.477h-26C1.346 3.477 0 4.762 0 6.339v17.159c0 1.577 1.346 2.857 3.001 2.857h26c1.653 0 2.999-1.28 2.999-2.857V6.339c0-1.577-1.346-2.864-3.001-2.864zm0 1.908c.135 0 .263.025.382.073L16 16.514 2.617 5.458a1.02 1.02 0 0 1 .382-.073h26zm0 19.063H2.978a.978.978 0 0 1-.978-.95V7.474l13.344 11.024a1.024 1.024 0 0 0 1.314-.002l-.002.001L30 7.471v16.023c0 .526-.448.955-1.001.955z"/></symbol><symbol id="icon-smartphone" viewBox="0 0 32 32"><path d="M24 0H8C6.11 0 4.571 1.346 4.571 3.001v25.998C4.571 30.656 6.109 32 8 32h16c1.89 0 3.429-1.346 3.429-3.001V3.001C27.429 1.346 25.891 0 24 0zM8 2h16c.631 0 1.143.448 1.143 1.001V24H6.857V2.999C6.857 2.45 7.369 2 8 2zm16 28H8c-.631 0-1.143-.448-1.143-1.001V26h18.286v3.001c0 .549-.512.999-1.143.999z"/><path d="M9.952 27.291a.914.914 0 0 1 .001 1.416l-.002.001c-.217.183-.5.294-.809.294s-.592-.111-.811-.296l.002.002a.915.915 0 0 1-.002-1.416l.002-.001c.217-.183.5-.294.809-.294s.592.111.811.296l-.002-.002z"/></symbol><symbol id="icon-person" viewBox="0 0 32 32"><path d="M16 16a8 8 0 0 0 0-16 8 8 0 0 0 0 16zm0 4c-5.339 0-16 2.68-16 8v2c0 1.099.901 2 2 2h28c1.099 0 2-.901 2-2v-2c0-5.32-10.661-8-16-8z"/></symbol><symbol id="icon-phone" viewBox="0 0 32 32"><path d="m27.419 20.853-4.201-.48a3.28 3.28 0 0 0-2.713.941l-3.042 3.045c-4.718-2.435-8.467-6.185-10.835-10.764l-.065-.139L9.624 10.4a3.281 3.281 0 0 0 .94-2.729l.002.016-.48-4.169A3.314 3.314 0 0 0 6.799.592H3.934C2.064.59.51 2.144.624 4.014 1.502 18.14 12.8 29.42 26.91 30.297c1.867.114 3.424-1.44 3.424-3.31V24.11a3.279 3.279 0 0 0-2.897-3.256l-.015-.001z"/></symbol><symbol id="icon-email" viewBox="0 0 32 32"><path d="M28 4H4a2.997 2.997 0 0 0-2.986 3L1 25c0 1.65 1.35 3 3 3h24c1.65 0 3-1.35 3-3V7c0-1.65-1.35-3-3-3zm-.6 6.376-10.604 6.628c-.226.141-.501.225-.795.225s-.569-.084-.801-.229l.006.004L4.6 10.374a1.275 1.275 0 1 1 1.354-2.157l-.005-.003 10.05 6.286 10.05-6.286a1.274 1.274 0 1 1 1.356 2.157l-.006.003z"/></symbol><symbol id="icon-antenna" viewBox="0 0 32 32"><path fill="#212121" style="fill:var(--color2,#212121)" d="m30.773 22.098-8.443-8.505.937-4.616c.225.09.485.144.758.146h.033a2.16 2.16 0 1 0-2.029-1.42l-.005-.015-4.96.606L8.973.161a.53.53 0 0 0-.376-.16.536.536 0 0 0-.373.155L6.712 1.66a.535.535 0 0 0 0 .754l.814.825C6.383 5.301 5.71 7.761 5.71 10.378c0 4.106 1.656 7.824 4.336 10.525l-.001-.001a.49.49 0 0 0 .146.097 2.986 2.986 0 0 0-.052.546v6.188h-6.4a2.669 2.669 0 0 0-2.667 2.666v1.067c0 .295.239.534.534.534H26.14a.534.534 0 0 0 .533-.534v-1.067a2.67 2.67 0 0 0-2.666-2.666h-6.4v-2.742a14.784 14.784 0 0 0 10.166-1.502l-.077.039.818.823a.534.534 0 0 0 .376.16.536.536 0 0 0 .373-.155l1.512-1.504a.535.535 0 0 0 0-.754zM23.28 6.233a1.067 1.067 0 1 1 .752 1.822h-.004a1.066 1.066 0 0 1-.747-1.822h-.002zm-1.256 3.504-.598 2.946-1.175-1.183 1.774-1.763zm-.605-.902-1.92 1.909-1.486-1.493 3.406-.416zM24.004 28.8a1.6 1.6 0 0 1 1.6 1.6v.534H2.138V30.4a1.6 1.6 0 0 1 1.6-1.6h20.267zm-7.466-2.134v1.067h-5.334v-1.067h5.334zM11.204 25.6v-4.053c0-1.294 1.196-2.346 2.667-2.346s2.667 1.053 2.667 2.346V25.6h-5.334zm6.4-1.696v-2.357c0-1.882-1.675-3.413-3.733-3.413h-.058c-1.353 0-2.54.707-3.213 1.771l-.009.016a13.817 13.817 0 0 1-3.812-9.55c0-2.314.567-4.496 1.569-6.414l-.036.077 18.602 18.709c-1.823.947-3.979 1.502-6.266 1.502-1.079 0-2.128-.124-3.136-.357l.093.018zm11.289-.684L7.836 2.039l.754-.752 7.935 7.98c.004 0 .006.007.01.01l13.114 13.191-.757.752z"/><path fill="#2196f3" style="fill:var(--color3,#2196f3)" d="M13.876 20.267h-.007a1.6 1.6 0 0 0-.003 3.2h.007a1.6 1.6 0 0 0 .002-3.2zm.373 1.978a.533.533 0 1 1-.378-.911.533.533 0 0 1 .374.911h.005z"/></symbol><symbol id="icon-clock" viewBox="0 0 32 32"><path fill="#212121" style="fill:var(--color2,#212121)" d="M31.296 15.301C31.295 6.849 24.441-.002 15.988 0S.685 6.855.687 15.308c.002 6.788 4.422 12.543 10.541 14.545l.108.031a.667.667 0 0 0 .529-.065.636.636 0 0 0 .283-.357l3.865-12.25a1.913 1.913 0 1 0-.852-3.63l.011-.005-5.106-5.107a.638.638 0 0 0-.902.902l5.103 5.109a1.847 1.847 0 0 0-.191.826c0 .602.283 1.137.723 1.48l.004.003-3.682 11.673C3.843 25.782.117 17.709 2.797 10.431S13.551-.573 20.829 2.108c7.278 2.681 11.004 10.754 8.323 18.032-1.345 3.581-4.003 6.406-7.374 7.938l-.088.036-.398-1.874a.639.639 0 0 0-1.05-.343l.001-.001-3.837 3.426a.637.637 0 0 0 .227 1.083l.005.001 4.899 1.563a.637.637 0 0 0 .818-.744l.001.004-.391-1.839c5.528-2.374 9.329-7.772 9.329-14.057v-.034.002zm-15.304-.637a.638.638 0 0 1 0 1.276.638.638 0 0 1 0-1.276zm2.1 14.864 2.184-1.948.603 2.84-2.787-.892z"/><path fill="#2196f3" style="fill:var(--color3,#2196f3)" d="M15.354 3.185V4.46a.638.638 0 0 0 1.276 0V3.185a.638.638 0 1 0-1.276 0zM3.876 14.664a.638.638 0 0 0 0 1.276h1.275a.638.638 0 0 0 0-1.276H3.876zm24.232 1.275a.638.638 0 0 0 0-1.276h-1.275a.638.638 0 0 0 0 1.276h1.275z"/></symbol><symbol id="icon-astronaut" viewBox="0 0 32 32"><path fill="#2196f3" style="fill:var(--color3,#2196f3)" d="M31.974 4.524a.535.535 0 0 0-.427-.362h-.003l-1.91-.278-.855-1.731c-.179-.365-.777-.365-.956 0l-.855 1.731-1.911.278a.534.534 0 0 0-.296.91l1.383 1.348-.326 1.903a.536.536 0 0 0 .525.624.524.524 0 0 0 .252-.064l-.003.001 1.708-.899 1.709.899a.534.534 0 0 0 .773-.565v.003l-.326-1.903 1.383-1.348a.532.532 0 0 0 .133-.551l.001.004zm-2.463 1.327a.534.534 0 0 0-.153.472l.191 1.114-1.001-.526a.523.523 0 0 0-.499.002l.003-.001-1.001.526.192-1.114a.533.533 0 0 0-.153-.472l-.811-.789 1.119-.163a.532.532 0 0 0 .402-.292l.5-1.013.501 1.013a.532.532 0 0 0 .402.292l1.119.162-.809.79zm-3.377 14.671h-1.067v1.067h1.067v-1.067zm0 2.134h-1.067v1.066h1.067v-1.066zm1.066-1.067h-1.067v1.067H27.2v-1.067zM25.067 21.589H24v1.067h1.067v-1.067zm-2.667 4.8h-1.067v1.067H22.4v-1.067zm0 2.134h-1.067v1.067H22.4v-1.067zm1.066-1.067h-1.067v1.067h1.067v-1.067zm-2.132 0h-1.067v1.067h1.067v-1.067zM16 24.256h-1.067v1.067H16v-1.067zm0 2.133h-1.067v1.067H16v-1.067zm1.067-1.067H16v1.067h1.067v-1.067zm-2.134 0h-1.066v1.067h1.066v-1.067zm-9.066-19.2H4.8v1.066h1.067V6.122zm0 2.134H4.8v1.066h1.067V8.256zm1.066-1.067H5.866v1.067h1.066V7.189zm-2.133 0H3.733v1.067H4.8V7.189z"/><path fill="#212121" style="fill:var(--color2,#212121)" d="M24.715 14.16a1.774 1.774 0 0 0-1.179-.703l-.009-.001a1.769 1.769 0 0 0-1.344.355l.004-.003-1.253.96-1.898 1.417-1.358-.541c2.421-1.086 4.113-3.508 4.113-6.32 0-3.823-3.122-6.934-6.961-6.934S7.869 5.5 7.869 9.324c0 1.386.415 2.674 1.12 3.759l-2.768-.024c-.009 0-.016.005-.023.005a.517.517 0 0 0-.159.033l.004-.001c-.013.005-.026.007-.038.013-.006.003-.013.003-.019.006l-3.233 1.596-.001.001-1.893.91a.429.429 0 0 0-.064.036l.001-.001a1.782 1.782 0 0 0-.594 2.306l-.005-.01c.22.424.592.742 1.043.885l.013.003a1.772 1.772 0 0 0 1.388-.133l-.009.005 1.388-.738 2.264-1.169 1.357-.008-5.442 5.415-.001.001-1.339 1.333c-.303.299-.49.714-.49 1.173v.005a1.66 1.66 0 0 0 1.666 1.663h.004a1.67 1.67 0 0 0 1.18-.485l1.314-1.309 1.741-1.3.901.897-3.102 3.088a1.643 1.643 0 0 0-.491 1.173v.004a1.662 1.662 0 0 0 1.666 1.664h.003a1.67 1.67 0 0 0 1.18-.485l4.488-4.472c.007-.006.016-.009.022-.016l5.166-5.658 3.471.494a.474.474 0 0 0 .262-.032c.018-.006.033-.015.05-.023.019-.01.039-.015.058-.027l3.213-2.133c.012-.008.018-.021.029-.03.013-.01.029-.014.041-.026l1.271-1.191c.348-.326.564-.787.564-1.3 0-.4-.132-.769-.355-1.067l.003.005zM2.13 17.77a.71.71 0 0 1-.558.052.717.717 0 0 1-.214-1.258l.002-.001 1.314-.632.316.924.133.389-.992.527zm3.497-1.828-1.548.8-.255-.746-.184-.537 2.027-1.001-.04 1.484zm15.1-6.62c0 .918-.219 1.785-.599 2.56l-4.181-1.899a1.865 1.865 0 0 0-.782-1.384l-.006-.004 1.463-4.861c2.378.756 4.105 2.974 4.105 5.588zm-11.789 0c0-3.235 2.644-5.867 5.894-5.867.253 0 .5.022.745.053l-1.432 4.753c-.019 0-.037-.006-.057-.006h-.001a1.872 1.872 0 0 0-1.872 1.867 1.873 1.873 0 0 0 1.872 1.867h.001c.695 0 1.295-.383 1.618-.944l3.863 1.755a5.893 5.893 0 0 1-4.737 2.389c-3.25 0-5.894-2.632-5.894-5.867zm5.957.8c0 .441-.362.8-.806.8h-.001a.804.804 0 0 1-.804-.8c0-.441.361-.8.806-.8s.806.359.806.8zM2.464 25.146a.606.606 0 0 1-.855.001.591.591 0 0 1 0-.844l.962-.959.852.848-.959.955zm3.214 3.734a.606.606 0 0 1-.855.001.591.591 0 0 1 0-.844l.963-.959.852.848-.96.955zm3.482-3.469-.001.001-1.765 1.76-.852-.848 1.765-1.757a.527.527 0 0 0 .09-.136c.007-.014.02-.026.026-.04.016-.041.019-.085.026-.128.003-.025.014-.048.014-.073 0-.036-.013-.07-.02-.106-.006-.032-.006-.064-.019-.096a.536.536 0 0 0-.092-.138c-.01-.012-.014-.027-.025-.038h-.001l-.001-.002-1.607-1.6c-.017-.017-.039-.024-.058-.038a.563.563 0 0 0-.084-.057l-.003-.001a.559.559 0 0 0-.09-.031l-.003-.001a.502.502 0 0 0-.101-.02h-.002l-.023-.001a.603.603 0 0 0-.075.005h.003c-.036.005-.069.009-.104.021a.512.512 0 0 0-.097.046l.002-.001c-.02.011-.042.015-.061.029l-1.773 1.324-.901-.897 2.399-2.386 4.361 4.289-.928.919zm6.819-7.017c-.015-.002-.03.004-.045.003l-.026-.001a.562.562 0 0 0-.092.008h.003a.484.484 0 0 0-.187.07l.002-.001a.528.528 0 0 0-.083.062c-.013.011-.028.016-.04.029l-4.698 5.146-4.328-4.256 2.833-2.818a.535.535 0 0 0-.378-.911h-.002l-2.219.013.028-1.607 3.104.027a6.928 6.928 0 0 0 4.978 2.101h.003c.438 0 .864-.046 1.28-.122.04.032.08.064.129.085l2.41.96.152.759.178.885-3.003-.427zm4.041.178-.313-1.558 1.446-1.08.946 1.257-2.08 1.381zm3.754-2.831-.838.785-.931-1.237.831-.637a.735.735 0 0 1 .543-.143.718.718 0 0 1 .621.71.71.71 0 0 1-.226.521z"/><path fill="#212121" style="fill:var(--color2,#212121)" d="m13.602 18.544-2.143-2.134a.53.53 0 0 0-.752 0l-2.143 2.133a.535.535 0 0 0 0 .756l2.143 2.134a.53.53 0 0 0 .752 0l2.143-2.134a.532.532 0 0 0 0-.756zm-2.519 1.759-1.387-1.381 1.386-1.381 1.387 1.381-1.387 1.381zm6.081-15.232-.258 1.036c.071.018 1.738.452 1.738 2.149h1.067c0-2.017-1.666-2.965-2.547-3.184zm2.547 4.251h-1.067v1.066h1.067V9.322z"/></symbol><symbol id="icon-diagram" viewBox="0 0 32 32"><path fill="#2196f3" style="fill:var(--color3,#2196f3)" d="M14.926 14.965h1.066v4.798h-1.066v-4.798zm4.264 2.132h1.066v2.665H19.19v-2.665zm-8.529 1.599h1.066v1.066h-1.066v-1.066zm-3.198-.533h1.066v1.6H7.463v-1.6z"/><path fill="#212121" style="fill:var(--color2,#212121)" d="M1.599 28.291h25.586a1.6 1.6 0 0 0 1.599-1.599V24.56a1.6 1.6 0 0 0-1.599-1.599h-.533V9.667l3.028-2.868a1.608 1.608 0 1 0-.742-.752l-.004-.01-2.281 2.162v-1.23a1.6 1.6 0 0 0-1.599-1.599H3.731a1.6 1.6 0 0 0-1.599 1.599v15.992h-.533A1.6 1.6 0 0 0 0 24.56v2.132a1.6 1.6 0 0 0 1.599 1.599zM30.384 4.837a.533.533 0 0 1 0 1.066.533.533 0 0 1 0-1.066zM3.198 6.969c0-.294.239-.533.533-.533h21.323c.294 0 .533.239.533.533v2.239l-1.066 1.013V8.036a.534.534 0 0 0-.534-.534H4.798a.534.534 0 0 0-.534.533v13.327c0 .294.239.533.534.533h19.189a.534.534 0 0 0 .534-.533v-9.675l1.066-1.01V22.96H3.198V6.969zm4.798 6.93h-.005a1.6 1.6 0 1 0 1.112 2.748l1.853.93a.533.533 0 0 0 .636-.123l3.939-4.431 3.872 2.902a.534.534 0 0 0 .686-.039l3.365-3.188v8.131H5.331V8.568h18.123v2.661l-3.771 3.572-3.904-2.927a.534.534 0 0 0-.718.071v.001l-3.993 4.493-1.493-.746c.01-.056.017-.123.02-.19V15.5a1.6 1.6 0 0 0-1.599-1.599zm.533 1.599a.533.533 0 0 1-1.066 0 .533.533 0 0 1 1.066 0zm3.198 8.528h5.33v.533a.533.533 0 0 1-.533.533h-4.265a.533.533 0 0 1-.533-.533v-.533zm-10.66.534c0-.294.238-.533.533-.533h9.062v.533a1.6 1.6 0 0 0 1.599 1.599h4.265a1.6 1.6 0 0 0 1.599-1.599v-.533h9.062c.294 0 .533.239.533.533v2.132a.533.533 0 0 1-.533.533H1.601a.533.533 0 0 1-.533-.533V24.56z"/></symbol><symbol id="icon-client1" viewBox="0 0 32 32"><path fill="#afb1b8" style="fill:var(--color4,#afb1b8)" d="m5.44 0 4.677 4.428h13.046v12.351l4.677 4.428V.001H5.44z"/><path fill="#afb1b8" style="fill:var(--color4,#afb1b8)" d="M1.6 4.241v20.6h21.76v-8.188L10.255 4.246 1.6 4.241zm17.615 17.587H5.043V7.973h1.002V20.89h13.17v.938zM7.866 28.662l.524-1.078h.438l-.764 1.437v.838h-.397v-.838l-.764-1.437h.439l.524 1.078zm2.247.667h-.881l-.184.53h-.411l.859-2.275h.355l.861 2.275h-.413l-.186-.53zm-.77-.319h.659l-.33-.944-.33.944zm2.328.234c0-.105.029-.202.086-.289.058-.089.17-.193.339-.314a1.498 1.498 0 0 1-.182-.276l-.004-.008a.568.568 0 0 1-.052-.226c0-.179.054-.319.163-.422s.254-.156.437-.156a.57.57 0 0 1 .406.147c.106.097.16.218.16.361v.003a.497.497 0 0 1-.074.262l.001-.002a.858.858 0 0 1-.233.236l-.003.002-.155.113.44.518a.914.914 0 0 0 .095-.417h.33c0 .28-.065.509-.196.689l.334.396h-.44l-.128-.152a.93.93 0 0 1-.558.183h-.025.001c-.225 0-.405-.06-.54-.179a.597.597 0 0 1-.202-.447v-.021.001zm.753.343a.58.58 0 0 0 .359-.128l-.497-.586-.049.035c-.125.095-.188.203-.188.325 0 .105.034.191.102.256a.375.375 0 0 0 .254.099h.019-.001zm-.21-1.466c0 .088.054.197.161.33l.173-.118.049-.039a.283.283 0 0 0 .097-.212v-.011a.2.2 0 0 0-.067-.149.233.233 0 0 0-.162-.064h-.019a.224.224 0 0 0-.167.075.276.276 0 0 0-.066.179v.01zm4.134.997c-.023.243-.113.432-.269.568s-.364.204-.623.204a.902.902 0 0 1-.48-.128.86.86 0 0 1-.317-.362l-.002-.005a1.302 1.302 0 0 1-.117-.544v-.22c0-.214.038-.403.114-.567a.871.871 0 0 1 .326-.378.913.913 0 0 1 .494-.133c.251 0 .453.068.606.205s.243.329.268.578h-.394c-.019-.163-.067-.281-.144-.353-.076-.073-.188-.109-.336-.109a.464.464 0 0 0-.397.189c-.092.125-.138.309-.141.552v.202c0 .246.044.433.132.563s.218.194.387.194c.155 0 .272-.035.35-.105s.128-.186.148-.348h.394zm2.17-.338c0 .223-.038.419-.115.588a.88.88 0 0 1-.332.388.905.905 0 0 1-.494.134.92.92 0 0 1-.493-.134.897.897 0 0 1-.332-.38l-.002-.006a1.335 1.335 0 0 1-.119-.555v-.023.001-.128c0-.222.038-.418.117-.588s.19-.3.333-.389c.144-.091.308-.136.493-.136s.35.045.493.134c.143.089.255.217.333.384s.118.362.118.584v.126zm-.396-.118c0-.252-.048-.445-.143-.58a.465.465 0 0 0-.384-.202l-.022.001h.001-.016a.468.468 0 0 0-.384.2l-.001.002c-.096.133-.145.323-.147.567v.131c0 .25.049.444.146.58s.233.205.406.205c.175 0 .31-.067.403-.2.095-.133.142-.328.142-.584v-.118z"/></symbol><symbol id="icon-client2" viewBox="0 0 32 32"><path fill="#afb1b8" style="fill:var(--color4,#afb1b8)" d="M14.14 1.806h.084c.156 0 .324.015.49.03a13.96 13.96 0 0 1 2.18.329V.403a12.432 12.432 0 0 0-2.207-.357l-.042-.002c-.254-.02-.571-.035-.889-.043H13.472c-1.523.006-3.04.201-4.515.582a18.28 18.28 0 0 0-4.79 1.948v17.475a18.922 18.922 0 0 1 4.431-1.75l.135-.029a19.11 19.11 0 0 1 3.78-.586l.052-.002h.052c.216-.011.433-.017.655-.018V15.83c-1.78.024-3.493.264-5.129.695l.147-.033c-.603.157-1.185.326-1.731.513l-.623.212V3.591l.266-.128c1.89-.918 4.096-1.513 6.424-1.649l.047-.002.028-.001.029.001h-.001c.248-.012.497-.018.742-.018h.28c.129.003.258.006.388.014z"/><path fill="#afb1b8" style="fill:var(--color4,#afb1b8)" d="M18.53 3.651h-.016c-.915 0-1.811-.077-2.684-.225l.094.013c-.277-.047-.55-.103-.814-.164V20.55c1.12.277 2.271.412 3.425.404a18.432 18.432 0 0 0 4.643-.61l-.128.029a18.299 18.299 0 0 0 4.877-1.995l-.085.047V1.262a19.021 19.021 0 0 1-4.429 1.751l-.136.03a19.338 19.338 0 0 1-4.746.609zm6.907.299.623-.209v13.63l-.266.129c-.903.443-1.963.834-3.065 1.118l-.119.026a16.52 16.52 0 0 1-4.074.527c-.411 0-.818-.017-1.214-.052l-.426-.038V5.064l.497.033c.361.023.735.034 1.141.034a21.134 21.134 0 0 0 5.32-.696l-.147.033a25.26 25.26 0 0 0 1.924-.576l-.193.058zM5.377 25.977a.916.916 0 0 0-.661-.281l-.033.001h.002-.014c-.139 0-.272.028-.393.078l.007-.003a.904.904 0 0 0-.51.512l-.002.006a1.002 1.002 0 0 0-.072.386v2.335c-.006.164.026.328.092.479a.83.83 0 0 0 .554.479c.114.031.231.048.349.048a.985.985 0 0 0 .968-.982v-.261h-.61v.221a.53.53 0 0 1-.038.199l.001-.004a.392.392 0 0 1-.088.132.426.426 0 0 1-.255.089.308.308 0 0 1-.286-.125l-.001-.001a.548.548 0 0 1-.082-.289l.001-.024v.001-2.177a.74.74 0 0 1 .075-.349.31.31 0 0 1 .262-.143l.038.002h-.002.012c.107 0 .201.052.26.131l.001.001a.494.494 0 0 1 .102.301v.013-.001.202h.604v-.249c0-.143-.027-.28-.077-.405l.003.007a.955.955 0 0 0-.205-.329zm3.625-.026a1.055 1.055 0 0 0-1.058-.191.963.963 0 0 0-.556.511l-.002.006a1.08 1.08 0 0 0-.089.452v2.239c-.004.158.026.314.089.458a.89.89 0 0 0 .237.313.955.955 0 0 0 .322.197 1.048 1.048 0 0 0 1.06-.198l-.001.001a.962.962 0 0 0 .23-.313c.063-.144.093-.301.089-.458v-2.26c0-.156-.033-.304-.092-.438l.003.007a1.016 1.016 0 0 0-.23-.327zm-.284 3.018.001.034a.4.4 0 0 1-.123.29.445.445 0 0 1-.575-.001l.001.001a.398.398 0 0 1-.121-.326v.002-2.239l-.001-.034a.4.4 0 0 1 .123-.289.445.445 0 0 1 .575.001l-.001-.001a.4.4 0 0 1 .121.325v-.002 2.24zm5.046 1v-4.24h-.586l-.77 2.244h-.011l-.777-2.244h-.581v4.239h.606V27.39h.011l.593 1.823h.302l.598-1.823h.011v2.578h.605zm3.441-3.942a.834.834 0 0 0-.342-.232 1.31 1.31 0 0 0-.416-.066h-.024.001-.9v4.24h.604v-1.656h.311a1.1 1.1 0 0 0 .545-.116.88.88 0 0 0 .329-.32l.002-.004a1 1 0 0 0 .138-.369c.021-.133.033-.287.033-.444v-.04.002a2.426 2.426 0 0 0-.059-.606.906.906 0 0 0-.223-.39zm-.311 1.292a.538.538 0 0 1-.057.224l.001-.003a.342.342 0 0 1-.154.147l-.002.001a.617.617 0 0 1-.254.054l-.033-.001h.002-.275V26.3h.311l.029-.001c.088 0 .172.02.247.055l-.004-.002a.35.35 0 0 1 .141.154l.001.002a.62.62 0 0 1 .053.236v.282c0 .098.006.201 0 .291h-.006zm3.172-1.59h-.495l-.934 4.24h.604l.177-.911h.823l.178.911h.604l-.958-4.24zm-.557 2.752.297-1.537h.011l.295 1.537h-.604zm4.46-.198h-.011l-.913-2.554h-.58v4.24h.604v-2.55h.012l.923 2.549h.569v-4.239h-.604v2.554zm3.691-2.554-.486 1.686h-.012l-.486-1.686h-.639l.83 2.448v1.791h.604v-1.791l.83-2.447h-.64zM3.692 31.166h.291v.817h.198v-.817h.289v-.167h-.778v.168zm2.448-.168-.382.985h.21l.081-.224h.392l.084.224h.215l-.391-.985h-.21zm-.031.595.134-.365.134.365h-.268zm2.45.027h.228v.127a.378.378 0 0 1-.234.083h-.014a.25.25 0 0 1-.195-.094.406.406 0 0 1-.073-.234l.001-.023v.001c0-.219.095-.329.283-.329l.021-.001c.097 0 .178.067.201.157v.001l.194-.038c-.042-.192-.18-.289-.417-.289h-.013a.492.492 0 0 0-.331.127.48.48 0 0 0-.141.38v-.002.023c0 .132.048.254.127.347l-.001-.001c.087.09.209.146.343.146L8.57 32h-.001.016c.155 0 .296-.06.402-.157v-.388h-.426v.166zm2.47-.622h-.198v.985h.689v-.167h-.49v-.817zm2.09 0h-.199v.985h.199v-.985zm2.042.657-.403-.657h-.193v.985h.185v-.643l.396.643h.198v-.985h-.182v.658zm1.846-.106h.49v-.167h-.49v-.215h.527v-.168h-.727v.985h.747v-.167h-.548v-.266zm4.477-.163h-.388v-.388h-.198v.984h.198v-.431h.388v.431h.198v-.985h-.197v.388zm1.858.163h.492v-.167h-.492v-.215h.529v-.168h-.726v.985h.746v-.167h-.548v-.266zm2.518.001c.172-.027.258-.118.258-.274a.23.23 0 0 0-.095-.219h-.001a.555.555 0 0 0-.25-.059l-.04.001h.002-.417v.984h.197v-.412h.055c.039 0 .076.008.109.023l-.002-.001a.201.201 0 0 1 .07.072l.215.313h.236l-.119-.192a.697.697 0 0 0-.216-.235l-.002-.002zm-.198-.137h-.146v-.247h.156a.515.515 0 0 1 .205.024l-.004-.001a.126.126 0 0 1 .028.157v-.001a.128.128 0 0 1-.037.043.537.537 0 0 1-.164.025l-.038-.001h.002zm2.098.136h.49v-.167h-.49v-.215h.529v-.168h-.728v.985h.747v-.167h-.548v-.266z"/></symbol><symbol id="icon-client3" viewBox="0 0 32 32"><path fill="#afb1b8" style="fill:var(--color4,#afb1b8)" d="M5.467 31.103c.023.001.044.01.06.025l.153.161c-.119.13-.266.234-.431.304a1.533 1.533 0 0 1-.61.109h-.031c-.196 0-.383-.038-.554-.106l.01.004a1.25 1.25 0 0 1-.709-.725l-.003-.009a1.591 1.591 0 0 1-.097-.55v-.022.001-.023c0-.198.038-.387.108-.56l-.004.01a1.318 1.318 0 0 1 .757-.734 1.65 1.65 0 0 1 .592-.102c.188-.004.374.027.549.093.151.063.29.149.412.257l-.129.171a.118.118 0 0 1-.032.031.077.077 0 0 1-.045.014h-.007a.12.12 0 0 1-.056-.019l-.069-.045-.096-.059a1.024 1.024 0 0 0-.296-.101l-.006-.001a1.233 1.233 0 0 0-.209-.018h-.02.001-.016c-.147 0-.288.028-.417.079l.008-.003a.964.964 0 0 0-.333.216 1.002 1.002 0 0 0-.216.342 1.27 1.27 0 0 0-.079.452c-.002.156.025.313.079.46.046.126.119.242.212.341a.863.863 0 0 0 .318.212c.125.049.259.074.394.073.078.001.156-.004.234-.015a.879.879 0 0 0 .505-.235.112.112 0 0 1 .073-.03zm4.421-.807c.002.194-.033.387-.103.568a1.246 1.246 0 0 1-.288.44 1.314 1.314 0 0 1-.444.286l-.009.003a1.695 1.695 0 0 1-1.176-.004l.012.004a1.331 1.331 0 0 1-.45-.29 1.3 1.3 0 0 1-.288-.436l-.003-.009a1.614 1.614 0 0 1 .004-1.147l-.004.011a1.34 1.34 0 0 1 .29-.447 1.32 1.32 0 0 1 .441-.276l.009-.003A1.674 1.674 0 0 1 9.055 29l-.012-.004a1.29 1.29 0 0 1 .741.729c.071.182.106.376.104.571zm-.402 0v-.024c0-.155-.027-.303-.076-.441l.003.009a.907.907 0 0 0-.522-.554l-.006-.002a1.219 1.219 0 0 0-.855.003l.009-.003a.903.903 0 0 0-.528.55l-.002.006a1.465 1.465 0 0 0 0 .912.899.899 0 0 0 .524.552l.006.002c.273.097.573.097.846 0a.903.903 0 0 0 .324-.214.972.972 0 0 0 .205-.341 1.29 1.29 0 0 0 .073-.456zm3.418.478.041.102c.015-.036.028-.069.044-.102.017-.04.034-.073.052-.105l-.003.005.978-1.694c.019-.03.036-.048.056-.053s.043-.009.066-.009h.015-.001.289v2.755h-.342v-2.111l-.001-.048.002-.05v.002l-.984 1.718a.149.149 0 0 1-.057.062h-.001a.16.16 0 0 1-.082.022h-.057c-.03.001-.06-.007-.084-.022s-.045-.036-.058-.062v-.001l-1.012-1.73v2.212h-.331v-2.75h.303a.22.22 0 0 1 .068.01h-.002a.107.107 0 0 1 .053.052v.001l.999 1.696c.018.028.035.06.048.094l.001.004zm3.682-.136v1.031h-.383v-2.75h.887c.158 0 .311.022.455.063l-.012-.003a.927.927 0 0 1 .337.171c.085.074.15.167.191.27a.925.925 0 0 1 .066.352.84.84 0 0 1-.071.352.76.76 0 0 1-.205.274l-.001.001a.953.953 0 0 1-.333.181l-.007.002a1.498 1.498 0 0 1-.461.064l-.463-.007zm0-.296h.463a.961.961 0 0 0 .297-.042.627.627 0 0 0 .215-.12l-.001.001c.056-.049.1-.11.129-.178L17.69 30a.565.565 0 0 0 .046-.225v-.008l.001-.028a.506.506 0 0 0-.041-.199l.001.003a.544.544 0 0 0-.133-.188.763.763 0 0 0-.457-.15l-.061.002h.003-.463v1.134zm5.144 1.331h-.307a.134.134 0 0 1-.079-.026.168.168 0 0 1-.049-.063v-.001l-.26-.665h-1.307l-.27.665a.152.152 0 0 1-.047.061.135.135 0 0 1-.081.028h-.307l1.148-2.756h.398l1.164 2.756zm-1.894-1.023h1.08l-.455-1.122c-.03-.07-.06-.157-.083-.245l-.003-.014-.045.144a1.282 1.282 0 0 1-.045.126l.003-.009-.452 1.119zm3.549-1.72c.023.013.043.03.058.05l1.674 2.076v-2.138h.342v2.756h-.196a.164.164 0 0 1-.074-.017h.001a.233.233 0 0 1-.061-.051l-1.674-2.075a.753.753 0 0 1 0 .095v2.049h-.342v-2.756h.203c.024 0 .047.004.068.013zm4.896 1.647v1.094h-.383v-1.094l-1.058-1.66H27.189c.028 0 .054.009.075.024a.251.251 0 0 1 .052.061l.001.001.662 1.07c.045.07.085.151.114.236l.002.008.05-.118a.89.89 0 0 1 .066-.126l.653-1.078a.284.284 0 0 1 .05-.059.117.117 0 0 1 .076-.027h.352l-1.06 1.667zm-15.566-6.284c.167.02.335.037.505.051 2.582-1.101 4.768-2.902 6.282-5.18s2.29-4.93 2.23-7.625l-2.846-2.712c.189.894.297 1.921.297 2.974 0 2.015-.396 3.937-1.115 5.694l.036-.1c-1.09 2.731-2.956 5.12-5.389 6.899z"/><path fill="#afb1b8" style="fill:var(--color4,#afb1b8)" d="m11.699 24.167.077.015c2.6-1.773 4.583-4.247 5.692-7.104.627-1.564.99-3.377.99-5.275 0-1.296-.17-2.553-.488-3.75l.023.102-4.054-3.862c1.269 2.396 2.014 5.238 2.014 8.254 0 .702-.04 1.394-.119 2.075l.008-.083c-.396 3.519-1.833 6.857-4.143 9.628zm13.749-9.443c-.689 2.962-2.361 5.632-4.77 7.616a14.98 14.98 0 0 1-2.191 1.51l-.075.039a13.579 13.579 0 0 0 5.285-2.851l-.016.013a12.76 12.76 0 0 0 3.38-4.679l.031-.084-1.645-1.565z"/><path fill="#afb1b8" style="fill:var(--color4,#afb1b8)" d="m24.804 14.288-2.341-2.23a13.684 13.684 0 0 1-2.23 7.249l.032-.053c-1.394 2.169-3.373 3.943-5.729 5.137h.012c.525 0 1.049-.03 1.571-.089a14.47 14.47 0 0 0 5.65-3.95l.014-.017a13.397 13.397 0 0 0 3.005-5.958l.016-.089zM12.038 2.664 9.245 0c-2.497.919-4.644 2.535-6.16 4.636S.752 9.225.745 11.775c.01 2.818 1.005 5.552 2.829 7.77s4.372 3.793 7.242 4.476c2.562-2.973 4.061-6.647 4.281-10.488s-.851-7.648-3.059-10.87zm19.218 11.214c-.01-3.343-1.408-6.547-3.89-8.91s-5.843-3.696-9.352-3.706a13.674 13.674 0 0 0-4.741.841l17.099 16.29c.559-1.335.884-2.886.884-4.513v-.002z"/></symbol><symbol id="icon-client4" viewBox="0 0 32 32"><path fill="#afb1b8" style="fill:var(--color4,#afb1b8)" d="M4.961 12.532H4.96c-.905 0-1.639.715-1.639 1.597v.001c0 .882.734 1.597 1.638 1.597h.001c.905 0 1.639-.715 1.639-1.597v-.001c0-.882-.734-1.596-1.639-1.596zm12.094-.51a4.573 4.573 0 0 0-1.392-3.265 4.814 4.814 0 0 0-6.701-.001 4.567 4.567 0 0 0-1.392 3.266v6.754s9.484-1.029 9.485-6.753v-.001zM0 20.993c.004.892.375 1.696.968 2.271l.001.001a3.346 3.346 0 0 0 4.662 0l-.001.001c.594-.576.965-1.38.97-2.27v-4.701S0 17.013 0 20.994zm3.3.842h-.001a.873.873 0 0 1-.482-.144l.003.002a.856.856 0 0 1-.317-.373l-.002-.005a.815.815 0 0 1-.048-.492l-.001.005a.832.832 0 0 1 .236-.431.874.874 0 0 1 .437-.23l.006-.001a.877.877 0 0 1 .887.358.823.823 0 0 1 .079.796l.002-.005a.864.864 0 0 1-.799.521v-.003zm6.061-1.531v1.706h-.352v-1.706h.352zm.68.728v.274h-.776v-.274h.776zm.081-.728v.275h-.858v-.275h.858zm1.606.813v.081c0 .13-.018.246-.053.349a.775.775 0 0 1-.15.265l.001-.001a.64.64 0 0 1-.23.165.723.723 0 0 1-.284.057h-.011.001a.673.673 0 0 1-.523-.222l-.001-.001a.774.774 0 0 1-.15-.258l-.002-.005a1.049 1.049 0 0 1-.053-.334v-.016.001-.081c0-.13.018-.247.053-.349a.775.775 0 0 1 .15-.265l-.001.001a.654.654 0 0 1 .225-.164l.004-.002a.741.741 0 0 1 .294-.058c.108 0 .206.019.294.058s.166.094.23.166c.065.072.115.16.15.264s.054.219.054.349zm-.355.081v-.083c0-.09-.008-.17-.024-.239a.52.52 0 0 0-.074-.175l.001.002a.316.316 0 0 0-.116-.105l-.002-.001a.327.327 0 0 0-.151-.036h-.008a.338.338 0 0 0-.158.036.32.32 0 0 0-.115.104l-.001.001a.537.537 0 0 0-.071.17l-.001.004a.986.986 0 0 0-.024.224v.016-.001.083c0 .09.008.17.024.239s.041.127.073.174c.032.047.071.082.117.107s.099.036.158.036a.31.31 0 0 0 .273-.142l.001-.001a.533.533 0 0 0 .071-.171l.001-.004c.016-.07.024-.149.024-.239zm1.496.365v-.004a.215.215 0 0 0-.015-.08l.001.002a.159.159 0 0 0-.049-.068.432.432 0 0 0-.099-.061l-.003-.001a1.222 1.222 0 0 0-.16-.06l-.01-.003a2.075 2.075 0 0 1-.233-.09l.013.006a.907.907 0 0 1-.185-.111l.002.002a.499.499 0 0 1-.123-.144l-.001-.002a.401.401 0 0 1-.045-.185v-.015c0-.069.017-.133.048-.19l-.001.002c.031-.058.075-.108.131-.15s.123-.074.199-.097a.929.929 0 0 1 .254-.034c.126 0 .236.023.329.068s.166.108.218.186a.48.48 0 0 1 .078.271h-.349v-.006a.272.272 0 0 0-.032-.127l.001.001a.216.216 0 0 0-.092-.09l-.001-.001a.326.326 0 0 0-.145-.033h-.013.001-.012a.358.358 0 0 0-.143.029l.002-.001a.214.214 0 0 0-.092.073v.001a.179.179 0 0 0-.03.1v.003c0 .029.007.055.021.078.018.026.04.048.065.065l.001.001c.029.02.064.04.106.058s.091.035.146.052c.093.028.175.06.245.095s.13.074.178.118a.431.431 0 0 1 .144.337.417.417 0 0 1-.169.348c-.054.04-.12.071-.196.092s-.16.032-.254.032a.964.964 0 0 1-.25-.033.737.737 0 0 1-.227-.104l.003.002a.516.516 0 0 1-.158-.171l-.001-.003a.494.494 0 0 1-.06-.249h.353c0 .053.008.098.024.134s.039.066.069.089h.001c.031.023.067.04.106.049h.002c.042.01.088.015.138.015h.013a.359.359 0 0 0 .139-.027l-.003.001a.185.185 0 0 0 .117-.172v-.003zm1.354-1.26v1.706h-.35v-1.706h.35zm.525 0v.276h-1.392v-.276h1.392zm1.345 1.432v.274h-.908v-.274h.908zm-.793-1.432v1.706h-.352v-1.706h.352zm.675.695v.267h-.79v-.267h.79zm.117-.694v.275h-.907v-.275h.907zm.206 0h.636c.131 0 .243.02.336.058.095.039.167.097.218.174s.076.171.076.282c0 .091-.015.17-.047.236s-.075.12-.129.162l-.001.001a.673.673 0 0 1-.191.102l-.005.001-.111.058h-.553l-.002-.274h.423c.052 0 .1-.012.144-.034l-.002.001a.22.22 0 0 0 .091-.09l.001-.001a.278.278 0 0 0 .032-.13v-.015a.309.309 0 0 0-.031-.136l.001.002a.207.207 0 0 0-.092-.091l-.001-.001a.338.338 0 0 0-.144-.032h-.013.001-.285v1.431h-.351v-1.706zm.954 1.706-.389-.76.371-.002.394.746v.016h-.376zm1.846-.608h-.435v-.274h.449a.353.353 0 0 0 .152-.034l-.002.001a.215.215 0 0 0 .092-.092l.001-.001a.344.344 0 0 0-.001-.279l.001.002a.245.245 0 0 0-.091-.105l-.001-.001a.304.304 0 0 0-.151-.04h-.013.001-.313v1.431h-.352v-1.706h.665c.134 0 .248.024.343.072a.524.524 0 0 1 .296.488c0 .11-.025.206-.076.286s-.124.142-.22.186a.814.814 0 0 1-.343.066zm2.027.334v.274h-.908v-.274h.908zm-.793-1.432v1.706h-.352v-1.706h.352zm.675.694v.267h-.79v-.267h.79zm.117-.694v.275h-.907v-.275h.907zm.992 0v1.706h-.35v-1.706h.35zm.526 0v.275H21.25v-.275h1.392zm1.345 1.432v.274h-.908v-.274h.908zm-.793-1.432v1.706h-.352v-1.706h.352zm.674.694v.267h-.79v-.267h.79zm.118-.694v.275h-.907v-.275h.907zm.206 0h.636c.131 0 .243.02.337.058s.167.097.218.174a.497.497 0 0 1 .076.282c0 .091-.016.17-.047.236s-.075.12-.129.162l-.001.001a.673.673 0 0 1-.191.102l-.005.001-.111.058h-.553l-.002-.274h.423c.052 0 .1-.012.144-.034l-.002.001a.22.22 0 0 0 .091-.09l.001-.001a.28.28 0 0 0 .032-.13V20.837a.296.296 0 0 0-.032-.136l.001.002a.207.207 0 0 0-.092-.091l-.001-.001a.338.338 0 0 0-.144-.032h-.013.001-.284v1.431h-.352v-1.706zm.954 1.706-.389-.76.372-.002.394.746v.016h-.376zm1.472-.447v-.003a.216.216 0 0 0-.015-.081l.001.002a.159.159 0 0 0-.049-.068.432.432 0 0 0-.099-.061l-.003-.001a1.34 1.34 0 0 0-.17-.063 2.174 2.174 0 0 1-.234-.09l.013.006a.907.907 0 0 1-.185-.111l.002.002a.499.499 0 0 1-.123-.144l-.001-.002a.401.401 0 0 1-.045-.185v-.015c0-.069.017-.133.048-.19l-.001.002c.031-.058.075-.108.131-.15s.123-.074.199-.097a.929.929 0 0 1 .254-.034c.126 0 .236.023.329.068s.166.108.218.186a.48.48 0 0 1 .078.271h-.349v-.006a.272.272 0 0 0-.032-.127l.001.001a.216.216 0 0 0-.092-.09l-.001-.001a.326.326 0 0 0-.145-.033h-.013.001-.012a.358.358 0 0 0-.143.029l.002-.001a.214.214 0 0 0-.092.073v.001a.179.179 0 0 0-.03.1v.003c0 .029.007.055.021.078.018.026.04.048.065.065l.001.001c.029.02.064.04.106.058s.091.035.146.052c.093.028.175.06.245.095a.754.754 0 0 1 .179.119l-.001-.001a.431.431 0 0 1 .144.337.417.417 0 0 1-.169.348c-.054.04-.12.071-.196.092s-.16.032-.254.032a.964.964 0 0 1-.25-.033.737.737 0 0 1-.227-.104l.003.002a.516.516 0 0 1-.158-.171l-.001-.003a.494.494 0 0 1-.06-.249h.353c0 .053.008.098.024.134s.039.066.069.089c.031.023.067.04.106.049h.002c.042.01.088.015.138.015h.013a.359.359 0 0 0 .139-.027l-.003.001a.185.185 0 0 0 .117-.172v-.003z"/></symbol><symbol id="icon-client5" viewBox="0 0 32 32"><path fill="#afb1b8" style="fill:var(--color4,#afb1b8)" d="M2.434 24.558a.852.852 0 0 1 .188.548l.001.043c0 .258-.112.49-.291.649l-.001.001a1.259 1.259 0 0 1-.846.253H-.001v-3.474h1.455a1.24 1.24 0 0 1 .81.233l-.004-.002a.792.792 0 0 1 .283.608l-.001.044v-.002a.812.812 0 0 1-.169.532.79.79 0 0 1-.443.271.842.842 0 0 1 .502.297zm-1.742-.525h.621a.581.581 0 0 0 .396-.116.412.412 0 0 0 .135-.305l-.002-.036v.002l.001-.029a.422.422 0 0 0-.133-.309.6.6 0 0 0-.41-.117h.002-.611v.911zm1.078 1.332a.431.431 0 0 0 .148-.325l-.001-.029v.001l.001-.025a.44.44 0 0 0-.15-.331h-.001a.635.635 0 0 0-.382-.127l-.043.001h.002-.651v.955h.661a.657.657 0 0 0 .418-.12zm3.639.686L4.6 24.693h-.304v1.358H3.6v-3.474h1.318a1.294 1.294 0 0 1 .92.297l-.002-.002a1.105 1.105 0 0 1 .095 1.44l.002-.003a1.07 1.07 0 0 1-.629.353l.862 1.388h-.758zM4.296 24.22h.569c.396 0 .593-.175.593-.526l.001-.03a.519.519 0 0 0-.146-.361.612.612 0 0 0-.395-.143l-.056.002h.002-.577l.007 1.058zm4.919 1.132H7.828l-.245.7h-.73l1.275-3.435h.789l1.269 3.435h-.73l-.24-.699zm-.186-.526-.507-1.466-.507 1.466h1.014zm4.951 1.225h-.692l-1.55-2.362v2.362h-.69v-3.474h.69l1.55 2.376v-2.376h.692v3.474zm3.945-.832a1.507 1.507 0 0 1-.617.609l-.008.004a2.037 2.037 0 0 1-.972.219h-1.231v-3.474h1.231l.054-.001c.335 0 .651.079.93.22l-.012-.005c.265.133.483.345.625.606.137.265.216.579.216.911s-.08.646-.222.923l.005-.011zm-.791-.083a1.27 1.27 0 0 0-.002-1.66l.001.002a1.193 1.193 0 0 0-.791-.298l-.078.002h.003-.48v2.249h.48a1.197 1.197 0 0 0 .867-.297l-.001.001zM9.648 3.254s8.923 3.382 8.733 8.277v8.278s-8.916-3.384-8.73-8.278l-.003-8.277zm16.683 14.617a12.056 12.056 0 0 1 5.616-2.093l.054-.005v-2.591a11.716 11.716 0 0 0-5.641 4.642l-.028.048z"/><path fill="#afb1b8" style="fill:var(--color4,#afb1b8)" d="M25.318 18.652c1.393-2.778 3.739-4.906 6.598-5.985l.084-.028V5.172S19.292 9.99 19.561 16.959v11.786s.566-.215 1.457-.619c0-.377 0-.757.041-1.139a12.26 12.26 0 0 1 4.242-8.321l.016-.014z"/><path fill="#afb1b8" style="fill:var(--color4,#afb1b8)" d="M24.11 23.03c.067-.817.215-1.626.445-2.414a11.344 11.344 0 0 0-2.691 7.106v.013a34.921 34.921 0 0 0 2.618-1.387l-.174.094a11.912 11.912 0 0 1-.239-2.406c0-.354.015-.705.044-1.051l-.003.045zm.506.043a11.724 11.724 0 0 0 .169 3.164l-.012-.073c3.471-2.086 7.372-5.309 7.222-9.203v-.34a11.372 11.372 0 0 0-6.61 3.102l.004-.004a11.356 11.356 0 0 0-.771 3.312l-.003.041z"/></symbol><symbol id="icon-client6" viewBox="0 0 32 32"><path fill="#afb1b8" style="fill:var(--color4,#afb1b8)" d="M16.086 15.408a1.16 1.16 0 0 1-.204-.743v.004-1.072c0-.329.068-.579.204-.75s.37-.256.701-.255c.311 0 .532.073.663.218a.946.946 0 0 1 .196.641v.252h-.556V13.415c0-.076-.006-.151-.018-.225l.001.008a.25.25 0 0 0-.079-.148.294.294 0 0 0-.178-.058l-.025.001h.001l-.023-.001a.314.314 0 0 0-.19.063l.001-.001a.288.288 0 0 0-.092.162v.002a1.381 1.381 0 0 0-.022.265v1.302a.722.722 0 0 0 .071.365.263.263 0 0 0 .11.088l.002.001c.032.014.07.023.11.023l.035-.002h-.001a.287.287 0 0 0 .198-.059h-.001a.277.277 0 0 0 .083-.157v-.001c.013-.086.019-.174.018-.261v-.264h.556v.241l.002.066c0 .228-.073.439-.197.611l.002-.003c-.128.159-.346.239-.666.239s-.562-.085-.7-.262zm2.318.011c-.141-.167-.211-.41-.211-.732v-1.128c0-.319.07-.559.211-.723s.375-.245.705-.245c.327 0 .561.082.702.245s.212.405.212.723v1.128c0 .319-.072.563-.215.731s-.375.252-.699.252c-.324 0-.563-.085-.705-.251zm.964-.271a.688.688 0 0 0 .067-.334v-1.381l.001-.037a.66.66 0 0 0-.069-.294l.002.004a.263.263 0 0 0-.112-.089l-.002-.001a.275.275 0 0 0-.148-.019h.001c-.011-.002-.024-.002-.038-.002a.28.28 0 0 0-.112.023l.002-.001a.272.272 0 0 0-.114.089l-.001.001a.661.661 0 0 0-.067.327v1.387a.668.668 0 0 0 .067.334.336.336 0 0 0 .115.082l.002.001a.365.365 0 0 0 .288-.001l-.002.001a.352.352 0 0 0 .117-.082v-.006zm1.324-2.524h.599l.451 2.082.461-2.082h.583l.059 3.004h-.43l-.046-2.088-.445 2.088h-.346l-.461-2.095-.043 2.095h-.436l.054-3.004zm2.825 0h.933c.538 0 .807.284.807.853 0 .545-.283.817-.849.816h-.318v1.335h-.576l.004-3.004zm.797 1.284a.418.418 0 0 0 .316-.094.525.525 0 0 0 .083-.339l.001-.033a.999.999 0 0 0-.03-.246l.001.007a.22.22 0 0 0-.043-.083.255.255 0 0 0-.071-.06l-.001-.001a.535.535 0 0 0-.226-.049l-.032.001h.001-.224v.897h.224zm1.774-1.284h.619l.635 3.004h-.537l-.125-.693h-.552l-.129.693h-.545l.635-3.004zm.528 1.964-.216-1.261-.215 1.261h.431zm1.238-1.964h.403l.772 1.714v-1.714h.478v3.004h-.384l-.777-1.789v1.789h-.494l.001-3.004zm2.774 1.859-.642-1.855h.541l.392 1.191.367-1.191h.529l-.634 1.855v1.146h-.553v-1.146zm-13.652 2.459v.157h-.47v1.221h-.197v-1.221h-.472v-.157h1.14zm1.474 1.377h-.156a.065.065 0 0 1-.039-.013.075.075 0 0 1-.025-.031l-.136-.327h-.652l-.136.327a.085.085 0 0 1-.021.037.065.065 0 0 1-.039.013h-.156l.576-1.378h.2l.583 1.372zm-.954-.511h.544l-.23-.561a.966.966 0 0 1-.041-.122l-.002-.007-.022.073-.021.058-.228.56zm1.947.376a.573.573 0 0 0 .2-.017.61.61 0 0 0 .088-.027l-.004.002.077-.033v-.31h-.233a.044.044 0 0 1-.029-.011.033.033 0 0 1-.012-.024v-.107h.447v.528a.86.86 0 0 1-.237.111l-.006.001a.866.866 0 0 1-.14.028h-.005c-.05.006-.108.009-.166.009h-.008a.82.82 0 0 1-.29-.053l.006.002a.686.686 0 0 1-.23-.144.675.675 0 0 1-.147-.214l-.002-.004a.745.745 0 0 1-.053-.276v-.01.001-.01c0-.1.019-.196.054-.284l-.002.005a.634.634 0 0 1 .378-.361.899.899 0 0 1 .309-.051c.054 0 .107.004.16.012a.706.706 0 0 1 .353.162l-.056.085a.066.066 0 0 1-.018.019.06.06 0 0 1-.026.007.064.064 0 0 1-.036-.011.618.618 0 0 1-.059-.034l.003.002a.463.463 0 0 0-.074-.036l-.003-.001a.648.648 0 0 0-.102-.03l-.004-.001a.754.754 0 0 0-.138-.012h-.015a.622.622 0 0 0-.22.04l.004-.001a.474.474 0 0 0-.169.109.483.483 0 0 0-.107.172.697.697 0 0 0 .001.465l-.002-.005a.497.497 0 0 0 .283.282.586.586 0 0 0 .228.027zm1.837-.022h.629v.157h-.822v-1.378h.197l-.005 1.221zm1.284.157h-.197v-1.377h.197v1.378zm.733-1.371a.091.091 0 0 1 .03.025l.842 1.039-.001-.025.001-.026v.001-1.027h.172v1.383H24.235a.086.086 0 0 1-.036-.008h.001a.13.13 0 0 1-.031-.026l-.841-1.037v1.071h-.165v-1.377h.102c.011 0 .022.002.032.006zm2.494-.006v.152h-.698v.455h.566v.146h-.566v.47h.698v.152h-.901v-1.375h.901zM5.143 8.433l8.75 2.352v8.242l-8.749-2.35V8.434zm-.561-.703v9.345l9.871 2.654v-9.345L4.582 7.729z"/><path fill="#afb1b8" style="fill:var(--color4,#afb1b8)" d="M9.872 24.068 0 21.412v-9.345l9.872 2.655v9.346z"/><path fill="#afb1b8" style="fill:var(--color4,#afb1b8)" d="m4.745 8.327 8.635 2.322-3.672 3.478-8.636-2.323 3.674-3.477zm-.163-.597L0 12.067l9.872 2.655 4.581-4.337L4.582 7.73zm5.846 15.813 4.025-3.811-4.025-1.083v4.895z"/></symbol><symbol id="icon-instagram" viewBox="0 0 32 32"><path d="M31.968 9.408c-.074-1.701-.349-2.869-.742-3.882a7.839 7.839 0 0 0-1.85-2.837l-.001-.001A7.906 7.906 0 0 0 26.597.861l-.054-.018C25.524.449 24.362.176 22.661.101 20.949.019 20.405 0 16.059 0c-4.344 0-4.888.019-6.595.094-1.699.074-2.869.349-3.88.742a7.847 7.847 0 0 0-2.839 1.85l-.001.001A7.9 7.9 0 0 0 .919 5.465l-.018.054C.506 6.538.232 7.7.157 9.401c-.082 1.712-.101 2.256-.101 6.602 0 4.344.019 4.888.094 6.595.075 1.701.35 2.869.744 3.882a7.915 7.915 0 0 0 1.849 2.837l.001.001c.8.813 1.77 1.443 2.832 1.843 1.019.395 2.182.67 3.882.744 1.707.075 2.251.094 6.595.094 4.346 0 4.89-.019 6.595-.094 1.701-.074 2.869-.349 3.882-.742a8.237 8.237 0 0 0 4.664-4.628l.019-.055c.394-1.019.669-2.182.744-3.882.075-1.707.093-2.251.093-6.595s-.006-4.888-.08-6.595zm-2.88 13.066c-.07 1.563-.333 2.406-.55 2.97a5.341 5.341 0 0 1-3.004 3.024l-.036.012c-.56.219-1.411.482-2.968.55-1.688.075-2.194.094-6.464.094-4.269 0-4.782-.019-6.464-.094-1.563-.069-2.406-.331-2.97-.55a4.953 4.953 0 0 1-1.836-1.192l-.001-.001a4.978 4.978 0 0 1-1.184-1.803L3.6 25.45c-.218-.563-.48-1.413-.549-2.97-.075-1.688-.094-2.195-.094-6.464 0-4.27.019-4.784.094-6.464.069-1.563.331-2.406.549-2.97a4.897 4.897 0 0 1 1.198-1.837l.002-.002a4.972 4.972 0 0 1 1.806-1.182l.034-.011c.56-.219 1.411-.48 2.968-.55 1.688-.074 2.195-.093 6.464-.093 4.275 0 4.782.019 6.464.093 1.563.069 2.406.331 2.97.55a4.91 4.91 0 0 1 1.837 1.194c.531.52.938 1.144 1.195 1.84.218.56.48 1.411.549 2.968.075 1.688.094 2.194.094 6.464 0 4.269-.019 4.768-.094 6.458z"/><path d="M16.059 7.782a8.223 8.223 0 0 0-8.219 8.221 8.223 8.223 0 0 0 16.442.008v-.009a8.223 8.223 0 0 0-8.221-8.221zm0 13.552a5.333 5.333 0 0 1 .001-10.666h.001a5.334 5.334 0 1 1 0 10.668zM26.525 7.458a1.92 1.92 0 0 1-3.84 0 1.92 1.92 0 0 1 3.84 0z"/></symbol><symbol id="icon-twitter" viewBox="0 0 32 32"><path d="M32 6.078c-1.1.493-2.376.857-3.713 1.028l-.068.007a6.556 6.556 0 0 0 2.873-3.579l.013-.046a12.88 12.88 0 0 1-4.076 1.573l-.084.014A6.558 6.558 0 0 0 15.6 9.557v.004c0 .52.043 1.021.152 1.496-5.454-.266-10.28-2.88-13.522-6.861a6.524 6.524 0 0 0-.902 3.313v.001a6.57 6.57 0 0 0 2.914 5.451 6.453 6.453 0 0 1-2.994-.823l.033.017v.072a6.592 6.592 0 0 0 5.213 6.44l.043.008a6.403 6.403 0 0 1-1.662.215h-.061.003c-.419 0-.843-.024-1.242-.112.85 2.598 3.261 4.509 6.13 4.57a13.093 13.093 0 0 1-8.122 2.8H1.57h.001-.062c-.531 0-1.055-.034-1.569-.099l.061.006c2.826 1.846 6.287 2.944 10.004 2.944h.063-.003c12.072 0 18.672-10 18.672-18.669 0-.288-.01-.57-.024-.848a13.203 13.203 0 0 0 3.258-3.355l.03-.047z"/></symbol><symbol id="icon-facebook" viewBox="0 0 32 32"><path d="M21.328 5.312h2.923V.224A36.478 36.478 0 0 0 20.144 0h-.157.008c-4.213 0-7.099 2.65-7.099 7.52V12H8.25v5.688h4.646V32h5.698V17.69h4.461l.707-5.688h-5.168V8.08c0-1.643.443-2.768 2.734-2.768z"/></symbol><symbol id="icon-linkedin" viewBox="0 0 32 32"><path d="M31.992 32H32V20.262c0-5.741-1.235-10.163-7.947-10.163-3.227 0-5.392 1.77-6.277 3.45h-.093v-2.914h-6.365v21.363h6.627V21.42c0-2.786.528-5.48 3.978-5.48 3.398 0 3.45 3.179 3.45 5.658V32h6.619zM.528 10.635h6.635V32H.528V10.635zM3.843 0A3.843 3.843 0 0 0 0 3.843c0 2.12 1.722 3.878 3.843 3.878 2.12 0 3.842-1.757 3.842-3.878S5.965.002 3.844 0z"/></symbol><symbol id="icon-icon-send" viewBox="0 0 32 32"><path d="M32 0 0 18l10.227 3.787L26 7 14.003 23.187l.009.003-.012-.003V32l5.735-6.691L27.002 28l4.999-28z"/></symbol></defs></svg>